<?xml version="1.0" standalone="no"?>
<!DOCTYPE svg PUBLIC "-//W3C//DTD SVG 20010904//EN"
 "http://www.w3.org/TR/2001/REC-SVG-20010904/DTD/svg10.dtd">
<svg version="1.0" xmlns="http://www.w3.org/2000/svg"
 width="1024.000000pt" height="1024.000000pt" viewBox="0 0 1024.000000 1024.000000"
 preserveAspectRatio="xMidYMid meet">
<metadata>
Created by potrace 1.14, written by Peter Selinger 2001-2017
</metadata>
<g transform="translate(0.000000,1024.000000) scale(0.100000,-0.100000)"
fill="#000000" stroke="none">
<path d="M4965 8698 c-396 -44 -749 -188 -1004 -408 -44 -39 -83 -70 -86 -70
-3 0 -32 20 -65 44 -251 185 -563 244 -830 157 -181 -58 -291 -141 -468 -353
-148 -177 -203 -228 -331 -307 -181 -112 -247 -194 -272 -335 -36 -209 54
-546 218 -819 l35 -59 -26 -46 c-44 -76 -145 -290 -186 -392 -99 -250 -162
-485 -211 -785 -30 -187 -37 -573 -15 -785 58 -548 250 -1070 549 -1490 41
-58 94 -127 119 -155 39 -44 49 -64 78 -165 78 -277 165 -433 345 -614 273
-276 716 -470 1303 -571 921 -158 1968 -53 2592 260 279 140 508 351 650 600
18 31 44 63 58 73 145 91 486 450 629 662 478 710 641 1592 451 2440 -16 74
-48 192 -69 262 -21 70 -39 129 -39 131 0 2 88 87 196 187 107 101 202 196
210 211 18 35 18 120 0 162 -16 39 -76 94 -112 103 -14 4 -56 4 -93 2 l-67 -5
-21 39 -22 38 44 83 c204 386 237 754 83 948 -37 48 -76 76 -260 189 -50 31
-139 110 -293 260 -258 253 -320 298 -475 348 -142 46 -277 53 -429 22 -171
-35 -308 -100 -447 -213 -42 -34 -83 -66 -90 -71 -8 -7 -24 1 -51 25 -94 85
-348 219 -537 283 -161 55 -355 96 -546 116 -114 12 -404 11 -515 -2z m595
-222 c398 -64 740 -214 948 -414 l67 -64 -65 49 c-411 312 -936 430 -1531 343
-436 -64 -756 -210 -1069 -489 -25 -22 -49 -41 -53 -41 -15 0 57 95 131 172
237 248 565 402 977 457 101 14 481 6 595 -13z m1950 -144 c112 -36 207 -109
394 -300 181 -184 276 -263 400 -331 79 -44 136 -93 136 -116 0 -11 -16 -8
-67 11 -201 75 -341 165 -525 341 -256 246 -360 303 -547 303 -170 -1 -335
-57 -457 -156 l-57 -47 -18 24 c-10 13 -19 29 -19 35 0 12 86 87 153 133 68
46 189 100 261 117 87 20 262 12 346 -14z m-4107 -111 c42 -11 109 -35 149
-54 77 -36 178 -105 178 -122 -1 -5 -10 -21 -20 -34 l-20 -23 -93 46 c-113 57
-183 75 -312 83 -76 4 -116 2 -165 -11 -126 -32 -163 -58 -330 -229 -166 -171
-274 -259 -397 -324 -101 -54 -243 -115 -243 -104 0 23 55 72 159 139 136 88
204 150 358 330 124 143 206 218 285 258 125 63 307 81 451 45z m1007 -200
c175 -66 331 -213 397 -371 20 -50 27 -87 31 -162 5 -113 -13 -185 -60 -242
-40 -48 -77 -48 -137 0 -147 116 -354 141 -542 64 -94 -38 -172 -93 -222 -158
-84 -108 -100 -118 -131 -86 -11 11 -16 34 -16 78 0 96 35 211 89 292 l21 31
-53 -5 c-28 -2 -64 1 -79 7 -43 16 -36 47 25 106 84 81 231 145 336 145 43 0
44 1 25 18 -10 9 -45 37 -77 61 -32 24 -56 49 -54 55 2 6 26 17 53 24 67 18
199 9 301 -21 l82 -24 -43 56 c-24 31 -62 78 -85 106 -22 27 -41 52 -41 56 0
11 127 -10 180 -30z m1691 -56 c-34 -42 -66 -86 -72 -97 -10 -18 -9 -20 7 -14
127 49 380 52 409 6 3 -5 -29 -35 -71 -67 l-77 -58 79 -13 c100 -16 205 -66
278 -133 60 -55 74 -82 55 -105 -10 -13 -28 -15 -81 -12 -37 2 -68 2 -68 0 0
-2 11 -18 25 -36 36 -47 74 -166 81 -256 8 -92 -3 -120 -46 -120 -23 0 -35 9
-61 46 -54 79 -137 152 -213 189 -115 54 -183 68 -316 62 -144 -6 -224 -31
-322 -97 -40 -28 -81 -50 -90 -50 -26 0 -74 46 -96 94 -123 261 66 597 398
709 78 27 219 48 233 36 5 -4 -19 -41 -52 -84z m-2673 -1571 l20 -72 -55 -53
c-67 -66 -164 -209 -191 -281 -61 -164 -69 -363 -20 -488 15 -36 29 -98 33
-138 7 -82 27 -158 58 -217 40 -79 152 -241 205 -297 l54 -57 -43 -68 c-140
-222 -237 -426 -284 -597 l-22 -80 -44 -14 c-374 -120 -603 -245 -732 -403
-58 -70 -80 -136 -75 -228 4 -90 1 -87 -103 124 -86 175 -130 290 -190 493
-175 599 -155 1272 57 1883 47 137 182 430 203 444 8 4 40 -23 88 -74 134
-144 280 -239 415 -267 188 -40 314 36 419 250 50 103 106 265 130 370 l13 60
22 -110 c11 -60 30 -141 42 -180z m4902 224 c0 -19 -354 -362 -870 -843 -36
-34 -110 -104 -165 -156 -55 -52 -239 -219 -410 -372 -170 -152 -382 -343
-470 -423 -88 -80 -236 -213 -330 -295 -93 -82 -224 -196 -290 -255 -66 -59
-209 -185 -318 -282 -108 -96 -212 -184 -230 -194 -58 -33 273 279 802 757 85
77 225 205 311 285 86 80 250 231 365 335 115 105 288 262 385 351 96 88 231
212 300 274 148 135 507 469 709 660 169 159 211 191 211 158z m-1088 -211
c60 -122 115 -204 192 -286 l61 -63 -140 -134 c-77 -73 -143 -133 -147 -134
-5 0 -8 13 -8 28 0 77 -61 234 -126 325 l-36 49 35 77 c33 74 63 158 88 251
l12 45 11 -30 c6 -16 32 -74 58 -128z m-898 27 c190 -31 351 -111 482 -239 98
-96 135 -153 58 -89 -71 60 -141 102 -300 182 -153 76 -307 137 -373 148 -23
4 -44 11 -47 16 -7 10 30 7 180 -18z m-2230 7 c3 -5 -10 -11 -28 -14 -52 -8
-228 -82 -346 -144 -129 -68 -218 -130 -289 -203 -30 -30 -50 -48 -46 -40 46
83 156 200 249 262 126 86 238 123 443 147 6 0 14 -3 17 -8z m1531 -1 c123
-15 224 -42 384 -104 253 -99 466 -220 589 -335 38 -36 66 -53 95 -58 36 -7
49 -18 91 -73 54 -72 109 -180 128 -253 l12 -48 -99 -97 c-55 -54 -158 -151
-230 -217 -71 -66 -163 -152 -205 -190 -224 -210 -304 -279 -308 -267 -7 23
-22 12 -46 -35 -13 -27 -48 -69 -78 -94 -29 -26 -117 -107 -196 -182 l-143
-134 -72 5 c-40 2 -74 6 -76 8 -2 1 19 37 47 78 87 129 124 277 126 501 0 83
-3 174 -7 203 -8 51 -7 52 20 63 64 24 138 66 175 101 23 21 45 35 50 32 13
-8 58 24 67 49 11 29 -5 72 -34 91 -41 27 -77 20 -137 -27 -70 -55 -140 -85
-242 -105 -157 -31 -334 15 -423 109 -21 23 -50 54 -65 70 -14 16 -34 29 -43
29 -9 0 -29 -13 -43 -29 -15 -16 -45 -48 -67 -71 -22 -25 -68 -57 -105 -74
-61 -29 -72 -31 -180 -31 -108 0 -119 2 -181 31 -36 17 -85 45 -109 63 -48 34
-84 39 -118 15 -35 -24 -44 -59 -27 -99 11 -27 20 -35 40 -35 15 0 45 -15 68
-34 53 -42 106 -69 180 -91 l57 -16 -7 -42 c-5 -23 -8 -105 -8 -182 1 -140 18
-252 51 -331 8 -19 10 -34 6 -34 -5 0 -29 -13 -53 -29 -42 -29 -47 -30 -129
-24 -58 4 -95 12 -117 25 -44 26 -119 112 -155 176 -39 68 -58 69 -58 2 0 -58
-5 -60 -86 -32 -111 39 -208 144 -256 279 -13 35 -28 63 -35 63 -11 0 -29 -44
-35 -88 -3 -20 -7 -17 -35 26 -52 80 -67 148 -66 299 1 73 4 146 8 162 22 102
-81 -67 -122 -199 -7 -23 -29 26 -42 92 -12 66 -1 182 25 268 74 246 305 480
639 647 162 82 260 122 350 144 96 23 241 33 310 22 l50 -8 -65 -37 c-123 -69
-190 -175 -190 -304 0 -105 74 -247 171 -326 55 -45 150 -94 209 -107 254 -59
526 94 596 335 47 161 -18 315 -172 404 l-47 28 32 7 c105 23 220 28 336 15z
m-566 -111 c35 -5 77 -17 94 -26 l30 -15 -69 -25 c-87 -32 -163 -32 -264 0
l-75 24 45 17 c40 15 116 31 160 35 8 0 44 -4 79 -10z m3169 -609 c113 -370
147 -875 87 -1286 -41 -278 -133 -572 -264 -839 -79 -161 -207 -372 -244 -403
-11 -9 -17 23 -36 191 -54 480 -108 765 -195 1030 -60 184 -131 348 -205 477
l-51 88 72 69 c40 38 183 173 318 299 135 127 299 281 364 343 66 61 123 108
127 104 4 -4 16 -37 27 -73z m-3537 -567 c-8 -15 -10 -15 -11 -2 0 17 10 32
18 25 2 -3 -1 -13 -7 -23z m727 -59 c10 -11 24 -28 31 -39 11 -18 12 -17 8 13
-3 23 -1 30 7 22 15 -15 20 -228 7 -260 -10 -22 -11 -19 -8 22 5 60 -18 56
-27 -5 -17 -109 -93 -231 -184 -297 -32 -23 -48 -40 -40 -43 33 -13 -23 -5
-66 9 -35 12 -70 15 -129 12 -79 -5 -84 -4 -119 24 -40 32 -98 58 -126 58 -32
0 -52 34 -77 135 -20 80 -25 120 -24 219 1 66 4 111 6 98 4 -18 9 -22 26 -16
12 3 27 10 32 14 20 15 88 32 125 32 41 -1 110 -26 122 -45 4 -7 8 -35 8 -63
0 -64 24 -100 59 -89 28 8 41 42 41 104 l0 48 78 37 c72 35 82 37 155 33 60
-3 81 -8 95 -23z m23 -297 c-10 -9 -11 -8 -5 6 3 10 9 15 12 12 3 -3 0 -11 -7
-18z m19 -47 c0 -5 -2 -10 -4 -10 -3 0 -8 5 -11 10 -3 6 -1 10 4 10 6 0 11 -4
11 -10z m-1777 -176 c-86 -128 -156 -277 -183 -392 -7 -30 -17 -55 -24 -56
-67 -17 -96 -22 -96 -15 0 52 142 346 233 482 l60 89 24 -25 25 -25 -39 -58z
m1647 -74 c-24 -15 -36 -11 -14 4 10 8 21 12 24 10 2 -3 -2 -9 -10 -14z m-555
-61 c25 -12 55 -33 66 -47 37 -48 52 -53 99 -37 131 46 260 -17 325 -161 25
-55 40 -74 64 -85 17 -8 31 -17 31 -20 0 -3 -17 -24 -38 -47 -29 -31 -47 -42
-68 -42 -38 1 -69 27 -83 71 -19 60 -68 116 -126 144 -45 22 -64 26 -123 24
-55 -3 -75 0 -89 13 -54 49 -160 71 -220 46 -15 -6 -54 -10 -85 -9 -108 5
-195 -40 -268 -138 -45 -61 -47 -71 -24 -106 18 -27 19 -27 121 0 51 13 72 14
115 5 29 -6 76 -15 103 -19 28 -4 75 -21 105 -38 60 -34 79 -34 194 1 27 8 62
12 78 9 44 -9 94 -61 108 -113 6 -25 15 -52 20 -61 6 -12 -13 -34 -75 -92 -91
-84 -105 -112 -85 -172 15 -47 53 -75 101 -75 39 0 40 1 214 134 28 21 71 56
96 77 26 22 49 39 52 39 3 0 15 -13 26 -29 l21 -29 -25 -54 c-14 -29 -25 -67
-25 -85 0 -25 -10 -41 -46 -75 -52 -49 -85 -108 -104 -186 -14 -61 -6 -61
-140 -1 -92 41 -210 69 -288 69 -27 0 -70 3 -94 6 -45 6 -46 7 -52 52 -12 92
-93 187 -192 227 -54 21 -61 28 -85 77 -63 128 -250 223 -372 190 -34 -10 -37
-9 -37 10 0 12 29 49 72 91 l72 71 1 61 c2 123 98 238 217 260 26 5 49 1 83
-14 64 -28 86 -26 121 10 66 70 155 88 239 48z m-224 -255 c15 -13 16 -19 7
-26 -19 -12 -77 -9 -133 6 l-50 14 35 16 c43 20 113 15 141 -10z m193 -18 c29
-26 33 -38 12 -30 -8 3 -17 1 -21 -5 -8 -14 -72 -14 -80 -1 -9 14 27 59 47 60
9 0 28 -11 42 -24z m1090 -95 c3 -5 -10 -21 -29 -35 -33 -25 -35 -26 -35 -7 0
11 10 27 22 35 26 18 35 20 42 7z m-1964 -36 c0 -3 -9 -18 -21 -34 l-20 -27
-66 13 c-52 11 -78 11 -122 2 -86 -17 -186 -74 -223 -126 -18 -25 -43 -46 -57
-49 -66 -15 -204 -56 -281 -83 -271 -94 -439 -192 -509 -297 -27 -41 -32 -56
-28 -92 16 -148 244 -278 674 -386 460 -115 969 -166 1669 -167 381 -1 610 9
889 37 670 67 1278 237 1519 425 104 81 151 192 112 266 -26 52 -198 153 -370
220 -91 35 -317 103 -344 103 -8 0 -40 26 -71 58 -46 48 -68 62 -124 80 -80
26 -144 28 -216 6 -66 -19 -81 -8 -41 31 l30 29 218 -37 c577 -98 881 -228
960 -410 39 -90 -15 -305 -96 -384 -76 -75 -264 -178 -437 -241 -391 -142
-1007 -238 -1680 -262 -867 -31 -1745 60 -2290 237 -114 37 -217 86 -291 137
-65 46 -83 48 -40 5 17 -18 29 -52 46 -129 32 -156 120 -442 155 -510 9 -17
14 -30 11 -30 -11 0 -89 134 -115 199 -38 91 -116 362 -132 456 -6 39 -27 102
-46 141 -28 57 -36 87 -40 152 -5 75 -4 85 23 138 97 191 531 380 1149 498 72
14 139 27 150 29 31 7 55 8 55 2z m1810 -137 c16 -29 30 -58 30 -64 0 -5 -36
-18 -80 -28 -44 -10 -87 -24 -97 -32 -25 -19 -30 -17 -49 12 -17 24 -16 26 11
47 16 12 53 43 83 70 30 26 59 47 63 47 5 0 22 -24 39 -52z m475 -84 l54 -28
53 29 c138 76 322 -10 336 -156 2 -25 -1 -56 -7 -67 -10 -19 -7 -23 26 -38 63
-29 183 -159 228 -247 37 -73 39 -79 23 -91 -35 -26 -477 -137 -693 -175 -202
-34 -651 -86 -663 -75 -2 1 1 19 8 39 15 47 79 107 127 121 36 10 38 13 44 60
6 61 38 117 92 163 23 20 70 65 106 100 62 60 69 64 155 87 50 13 111 23 136
23 53 0 36 -10 -50 -29 -88 -19 -109 -30 -141 -77 -30 -43 -61 -63 -100 -63
-25 0 -78 -59 -79 -87 0 -12 -8 -27 -17 -32 -33 -19 -2 -11 40 11 29 15 66 23
122 26 l80 4 55 53 c30 29 71 60 90 68 19 8 54 30 77 49 62 52 144 70 203 44
9 -3 24 -1 33 7 39 28 -26 110 -123 156 -59 28 -105 31 -273 18 -101 -8 -153
-33 -216 -105 -39 -46 -58 -60 -96 -70 -95 -25 -156 -89 -176 -182 -8 -39 -23
-69 -51 -103 -47 -55 -71 -114 -88 -214 l-13 -73 -38 0 c-20 0 -44 -3 -53 -6
-21 -8 -21 27 -1 67 12 23 14 48 9 117 -6 78 -4 93 16 132 12 25 42 64 66 86
33 31 44 49 44 71 0 127 113 233 247 233 l64 0 20 48 c57 132 188 175 324 106z
m-2395 16 c19 -5 55 -31 81 -56 l47 -47 67 13 c155 29 260 -28 300 -163 13
-44 17 -46 100 -67 90 -22 152 -109 161 -223 3 -44 14 -86 35 -130 20 -45 32
-88 36 -136 l6 -71 -61 0 c-60 0 -60 0 -72 35 -6 19 -26 56 -44 83 -24 34 -35
63 -40 107 -12 106 -25 137 -76 186 -26 26 -63 52 -83 58 -29 10 -40 23 -67
77 -42 86 -87 117 -179 122 -54 4 -74 10 -109 35 -33 24 -56 32 -101 35 -84 6
-146 -17 -216 -81 l-57 -52 24 -34 c22 -34 25 -35 79 -32 68 3 125 -18 140
-53 7 -13 25 -30 42 -37 16 -7 56 -40 88 -73 64 -67 62 -67 221 -55 75 5 100
-14 154 -119 23 -44 44 -78 47 -76 14 15 127 -81 127 -107 0 -13 -92 -11 -290
6 -380 33 -712 94 -1052 192 -27 8 -22 32 21 105 71 122 161 210 280 273 55
29 56 31 61 80 3 28 11 60 18 71 22 41 113 114 155 124 23 6 47 13 52 15 20 7
71 5 105 -5z m3 -232 c45 -13 117 -76 117 -101 0 -13 -8 -11 -47 9 -27 13 -63
24 -81 24 -22 0 -41 8 -57 25 -51 50 -20 69 68 43z m3184 -40 l28 -11 -30 -7
c-31 -7 -65 4 -65 20 0 13 33 13 67 -2z m-2971 -68 c9 0 12 -4 9 -10 -5 -8 12
-14 35 -12 3 0 7 -12 8 -28 2 -23 -3 -29 -25 -35 -28 -7 -53 13 -53 41 0 6
-12 15 -27 19 -27 6 -27 7 -8 21 11 8 26 12 33 9 8 -3 20 -5 28 -5z m-946 -5
c0 -3 -10 -19 -22 -35 -19 -27 -28 -30 -75 -30 -30 0 -70 -7 -90 -15 -20 -8
-38 -14 -40 -12 -8 9 77 55 132 71 33 10 65 20 70 21 17 6 25 5 25 0z m1962
-375 c10 0 17 -4 14 -9 -3 -5 -15 -7 -25 -4 -29 7 -120 -15 -173 -42 -50 -26
-58 -22 -58 30 0 23 3 24 83 28 45 2 95 2 111 0 16 -2 37 -3 48 -3z m188 -135
c0 -13 -13 -15 -70 -13 -72 2 -82 13 -20 21 76 9 90 7 90 -8z m-210 -305 c13
-7 20 -26 25 -70 l7 -59 131 -3 c129 -3 131 -3 146 -29 17 -31 9 -74 -18 -88
-10 -6 -73 -13 -140 -17 l-121 -7 0 -32 c0 -30 3 -33 38 -39 20 -3 64 -6 98
-6 94 0 106 -22 89 -165 -15 -120 -42 -183 -89 -211 -26 -16 -56 -20 -196 -22
-195 -4 -230 3 -265 56 -25 39 -55 177 -55 256 0 72 13 81 133 84 l105 4 4 39
4 39 -128 0 c-115 0 -130 2 -148 20 -23 23 -27 82 -7 98 8 7 69 13 148 14
l134 3 3 30 c6 74 14 96 35 105 30 12 45 12 67 0z m-699 -230 c5 0 16 -11 25
-25 30 -46 13 -69 -110 -149 -135 -88 -146 -92 -174 -69 -34 29 -38 68 -10 93
45 42 233 159 246 155 8 -3 18 -5 23 -5z m1479 -68 c115 -72 125 -81 128 -111
4 -38 -20 -71 -51 -71 -20 0 -215 117 -254 153 -42 37 -22 107 30 107 12 0 78
-35 147 -78z"/>
<path d="M2826 4948 c-9 -12 -16 -30 -16 -40 0 -21 -18 -22 -107 -8 -71 12
-104 3 -129 -35 -14 -21 -14 -30 -4 -55 17 -41 21 -43 120 -52 47 -5 105 -11
130 -14 38 -5 48 -2 66 18 61 65 81 151 44 188 -28 28 -84 27 -104 -2z"/>
<path d="M3228 4743 c-9 -2 -49 -42 -88 -89 -39 -46 -75 -84 -80 -84 -5 0 -16
-13 -25 -29 -27 -53 22 -123 75 -106 27 9 210 213 210 234 0 33 -11 51 -41 66
-15 8 -29 14 -31 14 -2 -1 -11 -3 -20 -6z"/>
<path d="M2712 4514 c-19 -13 -93 -103 -176 -213 -37 -50 -30 -96 16 -116 46
-19 66 -8 117 64 25 36 68 88 94 116 76 78 83 100 42 140 -28 29 -61 32 -93 9z"/>
<path d="M4784 2136 c10 -89 6 -86 116 -86 123 0 187 9 194 26 3 8 8 36 12 64
l7 50 -52 0 -51 0 0 -34 c0 -57 -8 -66 -55 -66 -48 0 -56 7 -65 60 -5 35 -6
35 -59 38 l-54 3 7 -55z"/>
</g>
</svg>
